# xmcd CD database file
#
# Track frame offsets:
#	150
#	18400
#	39511
#	60330
#	79135
#	95566
#	112011
#	129281
#	146873
#	165106
#
# Disc length: 2418 seconds
#
# Revision: 0
# Processed by: cddbd v1.5.2PL0 Copyright (c) Steve Scherf et al.
# Submitted via: CDex 1.51
#
DISCID=7909700a
DTITLE=David Hudson - Drean RFoad
DYEAR=1900
DGENRE=Country
TTITLE0=Love You Forever
TTITLE1=Solid Rock
TTITLE2=Don't Look Back
TTITLE3=Waiting For The Rain
TTITLE4=Walk On My Own
TTITLE5=Empty Days
TTITLE6=Ride On
TTITLE7=One Chance
TTITLE8=Take It And Run
TTITLE9=Rockin' Years
EXTD=
EXTT0=
EXTT1=
EXTT2=
EXTT3=
EXTT4=
EXTT5=
EXTT6=
EXTT7=
EXTT8=
EXTT9=
PLAYORDER=
